<?xml version="1.0" standalone="no"?>
<!DOCTYPE svg PUBLIC "-//W3C//DTD SVG 20010904//EN" "http://www.w3.org/TR/2001/REC-SVG-20010904/DTD/svg10.dtd">
<svg version="1.0" xmlns="http://www.w3.org/2000/svg"
    width="711.000000pt" height="351.000000pt" viewBox="0 0 711.000000 351.000000"
    preserveAspectRatio="xMidYMid meet">

    <g transform="translate(0.000000,351.000000) scale(0.100000,-0.100000)"
        fill="#000000" stroke="none">
        <path
            d="M3914 1882 c-60 -29 -79 -74 -79 -187 1 -113 19 -155 79 -185 50 -24
131 -27 180 -6 37 16 76 60 76 87 0 27 -61 26 -85 -1 -14 -16 -31 -20 -81 -20
-84 0 -94 14 -94 127 0 70 3 86 20 103 38 38 170 22 170 -21 0 -5 18 -9 41 -9
37 0 40 2 34 23 -21 69 -64 98 -153 104 -51 3 -76 -1 -108 -15z" />
        <path
            d="M4860 1846 c0 -60 -4 -64 -34 -41 -11 9 -41 15 -69 15 -65 0 -113
-30 -138 -84 -35 -76 -20 -154 39 -210 39 -37 113 -47 163 -22 39 20 39 20 39'
1 0 -11 11 -15 40 -15 l40 0 -2 203 -3 202 -37 3 -38 3 0 -55z m-29 -115 c20
-16 24 -28 24 -76 0 -70 -16 -85 -90 -85 -67 0 -90 23 -90 87 0 37 5 49 28 69
35 30 94 32 128 5z" />
        <path
            d="M4300 1802 c-43 -23 -80 -90 -80 -147 0 -58 37 -126 80 -147 49 -24
131 -23 181 3 74 37 100 143 57 229 -29 56 -74 80 -148 80 -34 0 -69 -7 -90
-18z m155 -77 c14 -13 25 -32 26 -42 2 -39 -3 -69 -17 -90 -12 -20 -23 -23
-74 -23 -52 0 -62 3 -75 24 -9 13 -16 44 -17 67 0 35 5 47 26 66 38 32 98 31
131 -2z" />
        <path
            d="M5052 1800 c-48 -30 -72 -75 -72 -140 0 -110 58 -170 164 -170 76 0
125 23 149 70 l17 35 -40 3 c-27 2 -46 -2 -56 -12 -23 -23 -116 -22 -137 2
-34 38 -23 42 108 42 l125 0 0 46 c0 58 -28 106 -74 128 -49 23 -143 21 -184
-4z m156 -66 c38 -26 25 -34 -63 -34 -73 0 -84 2 -78 16 13 34 102 45 141 18z" />
    </g>
</svg>